<svg xmlns="http://www.w3.org/2000/svg" width="225" height="225" version="1.1"><path fill="#FFFEFE" d="M0 0 C74.25 0 148.5 0 225 0 C225 74.25 225 148.5 225 225 C150.75 225 76.5 225 0 225 C0 150.75 0 76.5 0 0 Z" transform="translate(0,0)"/><path fill="#FF5C11" d="M0 0 C3.78816332 2.81786184 6.54617364 5.72823152 9.375 9.5 C10.00293457 10.33325806 10.00293457 10.33325806 10.64355469 11.18334961 C11.58175479 12.42997376 12.51714804 13.67871372 13.45019531 14.92919922 C15.12002867 17.16037857 16.80520585 19.37941772 18.4921875 21.59765625 C79.24653451 101.69710862 79.24653451 101.69710862 74.6015625 142.5 C71.26756419 161.55141893 59.93365858 177.96701814 44.21875 189.00390625 C24.3654798 201.31582503 1.11791612 205.75056813 -21.98828125 201.15234375 C-26.1481762 200.12555767 -30.07343357 198.70526329 -34 197 C-34.64855957 196.72124023 -35.29711914 196.44248047 -35.96533203 196.15527344 C-45.86577478 191.73713664 -53.46998138 185.72397364 -61 178 C-61.66515625 177.34386719 -62.3303125 176.68773437 -63.015625 176.01171875 C-77.70506286 160.56134154 -82.56613042 140.6442873 -82.26953125 119.953125 C-81.54377693 97.8587323 -74.61897116 69.14224564 -60 52 C-59.34 52 -58.68 52 -58 52 C-56.11605343 54.25837726 -54.32581185 56.52545018 -52.5625 58.875 C-51.58884063 60.16724174 -50.61111653 61.45643315 -49.62890625 62.7421875 C-49.19650635 63.3182373 -48.76410645 63.89428711 -48.31860352 64.48779297 C-46.88329732 66.26743294 -46.88329732 66.26743294 -44 68 C-43.42894531 66.87207031 -42.85789063 65.74414062 -42.26953125 64.58203125 C-30.47361725 41.5670024 -16.54947954 19.89937419 0 0 Z" transform="translate(116,11)"/><path fill="#FF9657" d="M0 0 C3.98129953 1.54470744 6.2869237 4.28957239 8.9375 7.5 C9.41131104 8.06823486 9.88512207 8.63646973 10.37329102 9.22192383 C55.2592885 63.8863698 55.2592885 63.8863698 53 95 C50.55365801 108.02750797 43.42753332 118.64018861 32.8984375 126.5859375 C19.30817712 135.54005555 2.85187135 138.3728332 -13.125 135.63598633 C-25.50644647 132.80700439 -37.36148886 126.0431375 -44.25 115.25 C-50.53249725 104.03736867 -54.33548816 91.40743361 -51.1640625 78.6328125 C-43.78144851 56.78225701 -29.59658033 38.29957547 -15.45703125 20.40234375 C-11.94010734 15.94717506 -8.52159239 11.42230591 -5.125 6.875 C-4.60671631 6.18124268 -4.08843262 5.48748535 -3.55444336 4.77270508 C-2.36828324 3.18280645 -1.18391872 1.59156839 0 0 Z" transform="translate(112,45)"/></svg>